<?xml version="1.0" standalone="no"?>
<!DOCTYPE svg PUBLIC "-//W3C//DTD SVG 20010904//EN"
 "http://www.w3.org/TR/2001/REC-SVG-20010904/DTD/svg10.dtd">
<svg version="1.0" xmlns="http://www.w3.org/2000/svg"
 width="400.000000pt" height="400.000000pt" viewBox="0 0 400.000000 400.000000"
 preserveAspectRatio="xMidYMid meet">
<metadata>
Created by potrace 1.16, written by Peter Selinger 2001-2019
</metadata>
<g transform="translate(0.000000,400.000000) scale(0.100000,-0.100000)"
fill="currentColor" stroke="none">
<path d="M1806 3930 c-340 -39 -646 -171 -913 -393 -51 -43 -93 -83 -93 -90 0
-7 27 -39 59 -71 l59 -59 54 50 c215 200 489 329 806 379 129 20 385 14 501
-11 280 -62 507 -173 715 -350 l78 -68 62 62 61 62 -60 56 c-230 213 -543 366
-860 419 -111 18 -363 26 -469 14z"/>
<path d="M1785 3455 c-158 -29 -302 -86 -429 -168 -96 -63 -216 -163 -216
-180 0 -7 27 -39 59 -71 l60 -59 59 54 c109 101 250 180 399 225 108 32 318
44 441 24 192 -31 377 -123 530 -264 l43 -40 62 63 62 62 -55 51 c-165 154
-388 265 -609 303 -101 18 -309 18 -406 0z"/>
<path d="M1840 2994 c-96 -21 -218 -86 -294 -156 -36 -33 -66 -65 -66 -72 0
-6 27 -38 60 -71 l60 -59 30 36 c43 52 141 114 217 138 88 27 213 27 294 0 78
-27 131 -60 197 -124 l53 -51 62 64 61 63 -71 68 c-157 150 -384 212 -603 164z"/>
<path d="M1767 2472 c-12 -13 -17 -43 -19 -117 l-3 -100 -157 -5 c-127 -4
-160 -8 -173 -21 -9 -9 -75 -106 -146 -215 -87 -134 -129 -208 -129 -227 0
-15 11 -50 25 -77 14 -27 25 -51 25 -54 0 -2 -34 -6 -76 -8 -65 -3 -79 -7 -95
-27 -10 -13 -19 -31 -19 -41 0 -25 336 -672 357 -687 9 -7 40 -13 69 -13 l52
0 4 -124 c4 -145 14 -166 80 -166 l38 0 0 -254 c0 -159 4 -265 11 -285 19 -54
79 -69 117 -28 21 22 22 32 24 292 l3 270 245 0 245 0 3 -270 c2 -260 3 -270
24 -292 38 -41 98 -26 117 28 7 20 11 126 11 285 l0 254 38 0 c66 0 76 21 80
166 l4 124 52 0 c29 0 60 6 69 13 21 15 357 662 357 687 0 10 -9 28 -19 41
-16 20 -30 24 -95 27 -42 2 -76 6 -76 8 0 3 11 27 25 54 14 27 25 62 25 77 0
19 -42 93 -129 227 -71 109 -137 206 -146 215 -12 13 -45 17 -158 21 l-142 5
-3 52 c-3 58 -25 83 -72 83 -45 0 -64 -23 -70 -81 l-5 -54 -120 0 -120 0 -3
100 c-3 115 -14 135 -72 135 -23 0 -43 -7 -53 -18z m830 -519 c53 -82 98 -155
100 -164 3 -9 -9 -44 -26 -78 l-31 -61 -640 0 -640 0 -31 61 c-17 34 -29 69
-26 78 2 9 47 82 100 164 l97 147 500 0 501 0 96 -147z m-227 -1148 l0 -75
-370 0 -370 0 0 75 0 75 370 0 370 0 0 -75z"/>
</g>
</svg>
